<svg width="250" height="200" viewBox="0 0 250 200" fill="none" xmlns="http://www.w3.org/2000/svg">
<path d="M57.88 120H44.24C43.1253 120 42.304 119.765 41.776 119.296C41.3067 118.768 41.072 117.947 41.072 116.832V59.808C41.072 58.6933 41.3067 57.9013 41.776 57.432C42.304 56.904 43.1253 56.64 44.24 56.64H57.88C58.9947 56.64 59.7867 56.904 60.256 57.432C60.784 57.9013 61.048 58.6933 61.048 59.808V78.904H75.744V59.808C75.744 58.6933 75.9787 57.9013 76.448 57.432C76.976 56.904 77.7973 56.64 78.912 56.64H92.552C93.6667 56.64 94.4587 56.904 94.928 57.432C95.456 57.9013 95.72 58.6933 95.72 59.808V116.832C95.72 117.947 95.456 118.768 94.928 119.296C94.4587 119.765 93.6667 120 92.552 120H78.912C77.7973 120 76.976 119.765 76.448 119.296C75.9787 118.768 75.744 117.947 75.744 116.832V97.296H61.048V116.832C61.048 117.947 60.784 118.768 60.256 119.296C59.7867 119.765 58.9947 120 57.88 120ZM161.789 103.368C161.789 106.067 161.379 108.531 160.557 110.76C159.795 112.931 158.387 114.808 156.333 116.392C154.339 117.917 151.581 119.12 148.061 120C144.541 120.88 140.053 121.32 134.597 121.32C129.141 121.32 124.653 120.88 121.133 120C117.613 119.12 114.827 117.917 112.773 116.392C110.779 114.808 109.371 112.931 108.549 110.76C107.787 108.531 107.405 106.067 107.405 103.368V59.808C107.405 58.6933 107.64 57.9013 108.109 57.432C108.637 56.904 109.459 56.64 110.573 56.64H124.389C125.504 56.64 126.296 56.904 126.765 57.432C127.293 57.9013 127.557 58.6933 127.557 59.808V99.936C127.557 101.109 127.997 102.107 128.877 102.928C129.757 103.691 131.723 104.072 134.773 104.072C137.883 104.072 139.877 103.691 140.757 102.928C141.637 102.107 142.077 101.109 142.077 99.936V59.808C142.077 58.6933 142.312 57.9013 142.781 57.432C143.309 56.904 144.131 56.64 145.245 56.64H158.621C159.736 56.64 160.528 56.904 160.997 57.432C161.525 57.9013 161.789 58.6933 161.789 59.808V103.368ZM210.462 120H176.67C175.555 120 174.734 119.765 174.206 119.296C173.736 118.768 173.502 117.947 173.502 116.832V59.808C173.502 58.6933 173.736 57.9013 174.206 57.432C174.734 56.904 175.555 56.64 176.67 56.64H204.742C210.491 56.64 214.744 57.7547 217.502 59.984C220.259 62.1547 221.638 65.528 221.638 70.104V74.328C221.638 76.792 221.198 78.816 220.318 80.4C219.496 81.9253 218.206 83.0693 216.446 83.832C220.2 84.184 222.987 85.4747 224.806 87.704C226.624 89.9333 227.534 93.1893 227.534 97.472V105.568C227.534 110.496 226.126 114.133 223.31 116.48C220.552 118.827 216.27 120 210.462 120ZM193.302 71.6V81.104H200.782C201.896 81.104 202.718 80.8107 203.246 80.224C203.832 79.6373 204.126 78.7573 204.126 77.584V75.12C204.126 73.9467 203.832 73.0667 203.246 72.48C202.718 71.8933 201.896 71.6 200.782 71.6H193.302ZM193.302 94.656V105.04H204.742C205.856 105.04 206.678 104.747 207.206 104.16C207.792 103.573 208.086 102.693 208.086 101.52V98.088C208.086 96.9147 207.792 96.064 207.206 95.536C206.678 94.9493 205.856 94.656 204.742 94.656H193.302Z" fill="#0EA5E9"/>
<path d="M52.3 165H43.775C43.0783 165 42.565 164.853 42.235 164.56C41.9417 164.23 41.795 163.717 41.795 163.02V127.38C41.795 126.683 41.9417 126.188 42.235 125.895C42.565 125.565 43.0783 125.4 43.775 125.4H52.3C52.9967 125.4 53.4917 125.565 53.785 125.895C54.115 126.188 54.28 126.683 54.28 127.38V139.315H63.465V127.38C63.465 126.683 63.6117 126.188 63.905 125.895C64.235 125.565 64.7483 125.4 65.445 125.4H73.97C74.6667 125.4 75.1617 125.565 75.455 125.895C75.785 126.188 75.95 126.683 75.95 127.38V163.02C75.95 163.717 75.785 164.23 75.455 164.56C75.1617 164.853 74.6667 165 73.97 165H65.445C64.7483 165 64.235 164.853 63.905 164.56C63.6117 164.23 63.465 163.717 63.465 163.02V150.81H54.28V163.02C54.28 163.717 54.115 164.23 53.785 164.56C53.4917 164.853 52.9967 165 52.3 165ZM117.078 154.605C117.078 156.292 116.822 157.832 116.308 159.225C115.832 160.582 114.952 161.755 113.668 162.745C112.422 163.698 110.68 164.45 108.443 165C106.243 165.55 103.438 165.825 100.028 165.825C96.6184 165.825 93.7951 165.55 91.5584 165C89.3217 164.45 87.5617 163.698 86.2784 162.745C85.0317 161.755 84.1517 160.582 83.6384 159.225C83.1617 157.832 82.9234 156.292 82.9234 154.605V135.85C82.9234 134.163 83.1617 132.642 83.6384 131.285C84.1517 129.892 85.0317 128.7 86.2784 127.71C87.5617 126.72 89.3217 125.95 91.5584 125.4C93.7951 124.85 96.6184 124.575 100.028 124.575C103.438 124.575 106.243 124.85 108.443 125.4C110.68 125.95 112.422 126.72 113.668 127.71C114.952 128.7 115.832 129.892 116.308 131.285C116.822 132.642 117.078 134.163 117.078 135.85V154.605ZM95.4084 152.625C95.4084 153.358 95.6834 153.982 96.2334 154.495C96.7834 154.972 98.0484 155.21 100.028 155.21C102.008 155.21 103.273 154.972 103.823 154.495C104.373 153.982 104.648 153.358 104.648 152.625V137.83C104.648 137.133 104.373 136.547 103.823 136.07C103.273 135.557 102.008 135.3 100.028 135.3C98.0484 135.3 96.7834 135.557 96.2334 136.07C95.6834 136.547 95.4084 137.133 95.4084 137.83V152.625ZM142.512 165H133.602C132.905 165 132.392 164.853 132.062 164.56C131.768 164.23 131.622 163.717 131.622 163.02V136.015H123.537C122.84 136.015 122.327 135.868 121.997 135.575C121.703 135.245 121.557 134.732 121.557 134.035V127.38C121.557 126.683 121.703 126.188 121.997 125.895C122.327 125.565 122.84 125.4 123.537 125.4H152.577C153.273 125.4 153.768 125.565 154.062 125.895C154.392 126.188 154.557 126.683 154.557 127.38V134.035C154.557 134.732 154.392 135.245 154.062 135.575C153.768 135.868 153.273 136.015 152.577 136.015H144.492V163.02C144.492 163.717 144.327 164.23 143.997 164.56C143.703 164.853 143.208 165 142.512 165ZM187.405 165H161.885C161.189 165 160.675 164.853 160.345 164.56C160.052 164.23 159.905 163.717 159.905 163.02V127.38C159.905 126.683 160.052 126.188 160.345 125.895C160.675 125.565 161.189 125.4 161.885 125.4H187.405C188.102 125.4 188.597 125.565 188.89 125.895C189.22 126.188 189.385 126.683 189.385 127.38V133.815C189.385 134.512 189.22 135.025 188.89 135.355C188.597 135.648 188.102 135.795 187.405 135.795H172.225V140.03H182.95C183.647 140.03 184.142 140.195 184.435 140.525C184.765 140.818 184.93 141.313 184.93 142.01V147.895C184.93 148.592 184.765 149.105 184.435 149.435C184.142 149.728 183.647 149.875 182.95 149.875H172.225V154.605H187.405C188.102 154.605 188.597 154.77 188.89 155.1C189.22 155.393 189.385 155.888 189.385 156.585V163.02C189.385 163.717 189.22 164.23 188.89 164.56C188.597 164.853 188.102 165 187.405 165ZM225.867 165H197.872C197.175 165 196.662 164.853 196.332 164.56C196.038 164.23 195.892 163.717 195.892 163.02V127.38C195.892 126.683 196.038 126.188 196.332 125.895C196.662 125.565 197.175 125.4 197.872 125.4H206.397C207.093 125.4 207.588 125.565 207.882 125.895C208.212 126.188 208.377 126.683 208.377 127.38V154.605H215.912V145.695C215.912 144.998 216.058 144.503 216.352 144.21C216.682 143.88 217.195 143.715 217.892 143.715H225.867C226.563 143.715 227.058 143.88 227.352 144.21C227.682 144.503 227.847 144.998 227.847 145.695V163.02C227.847 163.717 227.682 164.23 227.352 164.56C227.058 164.853 226.563 165 225.867 165Z" fill="white"/>
<path d="M40.7 53.85C41.1333 53.85 41.4667 54.05 41.7 54.45C41.9667 54.85 42.1 55.4 42.1 56.1C42.1 57.4333 41.7833 58.4667 41.15 59.2C39.7167 60.9667 38.15 62.4167 36.45 63.55C34.75 64.6833 32.8 65.25 30.6 65.25C23.8 65.25 20.4 60.4667 20.4 50.9C20.4 49.4333 20.45 47.95 20.55 46.45H18.6C17.6 46.45 16.9167 46.2667 16.55 45.9C16.2167 45.5333 16.05 44.95 16.05 44.15C16.05 42.2833 16.8 41.35 18.3 41.35H21.15C21.7167 37.6833 22.5833 34.3333 23.75 31.3C24.9167 28.2667 26.3167 25.85 27.95 24.05C29.6167 22.25 31.4 21.35 33.3 21.35C34.7 21.35 35.8 21.9667 36.6 23.2C37.4 24.4333 37.8 25.9833 37.8 27.85C37.8 33.0167 35.6333 37.5167 31.3 41.35H36.9C37.4333 41.35 37.8167 41.4667 38.05 41.7C38.2833 41.9333 38.4 42.3667 38.4 43C38.4 45.3 36.5167 46.45 32.75 46.45H26.65C26.5833 48.1167 26.55 49.4167 26.55 50.35C26.55 53.8167 26.95 56.25 27.75 57.65C28.5833 59.05 29.8833 59.75 31.65 59.75C33.0833 59.75 34.35 59.3167 35.45 58.45C36.55 57.5833 37.85 56.2833 39.35 54.55C39.75 54.0833 40.2 53.85 40.7 53.85ZM31.95 26.15C31.45 26.15 30.8833 26.7833 30.25 28.05C29.65 29.2833 29.0667 31.0167 28.5 33.25C27.9667 35.45 27.5167 37.9 27.15 40.6C29.1167 38.9 30.5833 37 31.55 34.9C32.55 32.7667 33.05 30.8333 33.05 29.1C33.05 27.1333 32.6833 26.15 31.95 26.15ZM65.7789 53.85C66.2122 53.85 66.5456 54.05 66.7789 54.45C67.0456 54.85 67.1789 55.4 67.1789 56.1C67.1789 57.4333 66.8622 58.4667 66.2289 59.2C64.6956 60.9667 63.1122 62.4167 61.4789 63.55C59.8789 64.6833 58.0456 65.25 55.9789 65.25C54.2789 65.25 52.9956 64.7667 52.1289 63.8C51.2622 62.8 50.8289 61.3667 50.8289 59.5C50.8289 58.5667 51.0622 56.9 51.5289 54.5C51.9622 52.4 52.1789 50.95 52.1789 50.15C52.1789 49.6167 51.9956 49.35 51.6289 49.35C51.1956 49.35 50.5789 49.9167 49.7789 51.05C48.9789 52.15 48.1789 53.6167 47.3789 55.45C46.5789 57.2833 45.9289 59.2167 45.4289 61.25C44.7956 63.9167 43.2289 65.25 40.7289 65.25C39.7289 65.25 39.0622 64.9 38.7289 64.2C38.4289 63.4667 38.2789 62.1667 38.2789 60.3C38.2789 59.2333 38.2956 58.3833 38.3289 57.75L38.3789 53.75C38.3789 48.6167 38.8956 43.2667 39.9289 37.7C40.9956 32.1333 42.5456 27.4667 44.5789 23.7C46.6456 19.9 49.1122 18 51.9789 18C53.5122 18 54.7456 18.6667 55.6789 20C56.6456 21.3 57.1289 23 57.1289 25.1C57.1289 28.4667 56.1456 31.9667 54.1789 35.6C52.2122 39.2 49.0122 43.4167 44.5789 48.25C44.4789 49.9833 44.4289 51.7667 44.4289 53.6C45.5289 50.7667 46.7456 48.4667 48.0789 46.7C49.4456 44.9 50.7789 43.6167 52.0789 42.85C53.4122 42.0833 54.6289 41.7 55.7289 41.7C57.8956 41.7 58.9789 42.7833 58.9789 44.95C58.9789 46.25 58.6122 48.6 57.8789 52C57.2456 54.9 56.9289 56.8167 56.9289 57.75C56.9289 59.0833 57.4122 59.75 58.3789 59.75C59.0456 59.75 59.8289 59.35 60.7289 58.55C61.6622 57.7167 62.8956 56.3833 64.4289 54.55C64.8289 54.0833 65.2789 53.85 65.7789 53.85ZM50.9289 22.95C50.3289 22.95 49.6622 23.8167 48.9289 25.55C48.1956 27.25 47.4789 29.5667 46.7789 32.5C46.1122 35.4 45.5622 38.5667 45.1289 42C47.1956 39.5667 48.8956 36.9167 50.2289 34.05C51.5956 31.1833 52.2789 28.5833 52.2789 26.25C52.2789 25.1833 52.1622 24.3667 51.9289 23.8C51.6956 23.2333 51.3622 22.95 50.9289 22.95ZM81.0266 55.35C81.4599 55.35 81.7932 55.55 82.0266 55.95C82.2932 56.35 82.4266 56.9 82.4266 57.6C82.4266 58.8 82.1432 59.8333 81.5766 60.7C80.6432 62.1333 79.4099 63.25 77.8766 64.05C76.3766 64.85 74.5766 65.25 72.4766 65.25C69.2766 65.25 66.7932 64.3 65.0266 62.4C63.2599 60.4667 62.3766 57.8667 62.3766 54.6C62.3766 52.3 62.8599 50.1667 63.8266 48.2C64.7932 46.2 66.1266 44.6167 67.8266 43.45C69.5599 42.2833 71.5099 41.7 73.6766 41.7C75.6099 41.7 77.1599 42.2833 78.3266 43.45C79.4932 44.5833 80.0766 46.1333 80.0766 48.1C80.0766 50.4 79.2432 52.3833 77.5766 54.05C75.9432 55.6833 73.1432 56.9833 69.1766 57.95C69.9766 59.4833 71.3266 60.25 73.2266 60.25C74.5932 60.25 75.7099 59.9333 76.5766 59.3C77.4766 58.6667 78.5099 57.6 79.6766 56.1C80.0766 55.6 80.5266 55.35 81.0266 55.35ZM72.8266 46.6C71.5932 46.6 70.5432 47.3167 69.6766 48.75C68.8432 50.1833 68.4266 51.9167 68.4266 53.95V54.05C70.3932 53.5833 71.9432 52.8833 73.0766 51.95C74.2099 51.0167 74.7766 49.9333 74.7766 48.7C74.7766 48.0667 74.5932 47.5667 74.2266 47.2C73.8932 46.8 73.4266 46.6 72.8266 46.6Z" fill="white"/>
</svg>
